<mxfile host="app.diagrams.net" agent="Mozilla/5.0 (Windows NT 10.0; Win64; x64) AppleWebKit/537.36 (KHTML, like Gecko) Chrome/134.0.0.0 Safari/537.36" version="26.2.6">
  <diagram name="Page-1" id="Hndro3NymSRengmS3F-2">
    <mxGraphModel dx="488" dy="719" grid="1" gridSize="10" guides="1" tooltips="1" connect="1" arrows="1" fold="1" page="1" pageScale="1" pageWidth="850" pageHeight="1100" math="0" shadow="0">
      <root>
        <mxCell id="0" />
        <mxCell id="1" parent="0" />
        <mxCell id="y6ZsIbJDHpcvQN1jzFES-3" value="" style="edgeStyle=orthogonalEdgeStyle;rounded=0;orthogonalLoop=1;jettySize=auto;html=1;" edge="1" parent="1" source="y6ZsIbJDHpcvQN1jzFES-1" target="y6ZsIbJDHpcvQN1jzFES-2">
          <mxGeometry relative="1" as="geometry">
            <Array as="points">
              <mxPoint x="440" y="80" />
              <mxPoint x="280" y="80" />
            </Array>
          </mxGeometry>
        </mxCell>
        <mxCell id="y6ZsIbJDHpcvQN1jzFES-5" value="" style="edgeStyle=orthogonalEdgeStyle;rounded=0;orthogonalLoop=1;jettySize=auto;html=1;" edge="1" parent="1" source="y6ZsIbJDHpcvQN1jzFES-1" target="y6ZsIbJDHpcvQN1jzFES-4">
          <mxGeometry relative="1" as="geometry">
            <Array as="points">
              <mxPoint x="440" y="80" />
              <mxPoint x="760" y="80" />
            </Array>
          </mxGeometry>
        </mxCell>
        <mxCell id="y6ZsIbJDHpcvQN1jzFES-7" value="" style="edgeStyle=orthogonalEdgeStyle;rounded=0;orthogonalLoop=1;jettySize=auto;html=1;" edge="1" parent="1" source="y6ZsIbJDHpcvQN1jzFES-1" target="y6ZsIbJDHpcvQN1jzFES-6">
          <mxGeometry relative="1" as="geometry">
            <Array as="points">
              <mxPoint x="440" y="80" />
              <mxPoint x="590" y="80" />
            </Array>
          </mxGeometry>
        </mxCell>
        <mxCell id="y6ZsIbJDHpcvQN1jzFES-9" value="" style="edgeStyle=orthogonalEdgeStyle;rounded=0;orthogonalLoop=1;jettySize=auto;html=1;" edge="1" parent="1" source="y6ZsIbJDHpcvQN1jzFES-1" target="y6ZsIbJDHpcvQN1jzFES-8">
          <mxGeometry relative="1" as="geometry" />
        </mxCell>
        <mxCell id="y6ZsIbJDHpcvQN1jzFES-11" value="" style="edgeStyle=orthogonalEdgeStyle;rounded=0;orthogonalLoop=1;jettySize=auto;html=1;" edge="1" parent="1" source="y6ZsIbJDHpcvQN1jzFES-1" target="y6ZsIbJDHpcvQN1jzFES-10">
          <mxGeometry relative="1" as="geometry">
            <Array as="points">
              <mxPoint x="440" y="80" />
              <mxPoint x="920" y="80" />
            </Array>
          </mxGeometry>
        </mxCell>
        <mxCell id="y6ZsIbJDHpcvQN1jzFES-1" value="Robotic Arm" style="rounded=1;whiteSpace=wrap;html=1;" vertex="1" parent="1">
          <mxGeometry x="380" width="120" height="60" as="geometry" />
        </mxCell>
        <mxCell id="y6ZsIbJDHpcvQN1jzFES-13" value="" style="edgeStyle=orthogonalEdgeStyle;rounded=0;orthogonalLoop=1;jettySize=auto;html=1;entryX=0;entryY=0.5;entryDx=0;entryDy=0;" edge="1" parent="1" source="y6ZsIbJDHpcvQN1jzFES-2" target="y6ZsIbJDHpcvQN1jzFES-15">
          <mxGeometry relative="1" as="geometry">
            <Array as="points">
              <mxPoint x="200" y="140" />
              <mxPoint x="200" y="300" />
            </Array>
          </mxGeometry>
        </mxCell>
        <mxCell id="y6ZsIbJDHpcvQN1jzFES-14" value="" style="edgeStyle=orthogonalEdgeStyle;rounded=0;orthogonalLoop=1;jettySize=auto;html=1;" edge="1" parent="1" source="y6ZsIbJDHpcvQN1jzFES-2" target="y6ZsIbJDHpcvQN1jzFES-12">
          <mxGeometry relative="1" as="geometry">
            <Array as="points">
              <mxPoint x="200" y="140" />
              <mxPoint x="200" y="220" />
            </Array>
          </mxGeometry>
        </mxCell>
        <mxCell id="y6ZsIbJDHpcvQN1jzFES-2" value="Mechanical Design" style="rounded=1;whiteSpace=wrap;html=1;" vertex="1" parent="1">
          <mxGeometry x="220" y="110" width="120" height="60" as="geometry" />
        </mxCell>
        <mxCell id="y6ZsIbJDHpcvQN1jzFES-32" value="" style="edgeStyle=orthogonalEdgeStyle;rounded=0;orthogonalLoop=1;jettySize=auto;html=1;exitX=0;exitY=0.5;exitDx=0;exitDy=0;" edge="1" parent="1" source="y6ZsIbJDHpcvQN1jzFES-4" target="y6ZsIbJDHpcvQN1jzFES-31">
          <mxGeometry relative="1" as="geometry">
            <Array as="points">
              <mxPoint x="680" y="140" />
              <mxPoint x="680" y="220" />
            </Array>
          </mxGeometry>
        </mxCell>
        <mxCell id="y6ZsIbJDHpcvQN1jzFES-34" value="" style="edgeStyle=orthogonalEdgeStyle;rounded=0;orthogonalLoop=1;jettySize=auto;html=1;exitX=0;exitY=0.5;exitDx=0;exitDy=0;entryX=0;entryY=0.5;entryDx=0;entryDy=0;" edge="1" parent="1" source="y6ZsIbJDHpcvQN1jzFES-4" target="y6ZsIbJDHpcvQN1jzFES-33">
          <mxGeometry relative="1" as="geometry" />
        </mxCell>
        <mxCell id="y6ZsIbJDHpcvQN1jzFES-4" value="Control" style="rounded=1;whiteSpace=wrap;html=1;" vertex="1" parent="1">
          <mxGeometry x="700" y="110" width="120" height="60" as="geometry" />
        </mxCell>
        <mxCell id="y6ZsIbJDHpcvQN1jzFES-28" value="" style="edgeStyle=orthogonalEdgeStyle;rounded=0;orthogonalLoop=1;jettySize=auto;html=1;" edge="1" parent="1" source="y6ZsIbJDHpcvQN1jzFES-6" target="y6ZsIbJDHpcvQN1jzFES-27">
          <mxGeometry relative="1" as="geometry">
            <Array as="points">
              <mxPoint x="520" y="140" />
              <mxPoint x="520" y="220" />
            </Array>
          </mxGeometry>
        </mxCell>
        <mxCell id="y6ZsIbJDHpcvQN1jzFES-30" value="" style="edgeStyle=orthogonalEdgeStyle;rounded=0;orthogonalLoop=1;jettySize=auto;html=1;exitX=0;exitY=0.5;exitDx=0;exitDy=0;entryX=0;entryY=0.5;entryDx=0;entryDy=0;" edge="1" parent="1" source="y6ZsIbJDHpcvQN1jzFES-6" target="y6ZsIbJDHpcvQN1jzFES-29">
          <mxGeometry relative="1" as="geometry">
            <mxPoint x="520" y="180" as="sourcePoint" />
          </mxGeometry>
        </mxCell>
        <mxCell id="y6ZsIbJDHpcvQN1jzFES-6" value="Simulation" style="rounded=1;whiteSpace=wrap;html=1;" vertex="1" parent="1">
          <mxGeometry x="540" y="110" width="120" height="60" as="geometry" />
        </mxCell>
        <mxCell id="y6ZsIbJDHpcvQN1jzFES-24" value="" style="edgeStyle=orthogonalEdgeStyle;rounded=0;orthogonalLoop=1;jettySize=auto;html=1;" edge="1" parent="1" source="y6ZsIbJDHpcvQN1jzFES-8" target="y6ZsIbJDHpcvQN1jzFES-23">
          <mxGeometry relative="1" as="geometry">
            <Array as="points">
              <mxPoint x="360" y="140" />
              <mxPoint x="360" y="220" />
            </Array>
          </mxGeometry>
        </mxCell>
        <mxCell id="y6ZsIbJDHpcvQN1jzFES-25" value="" style="edgeStyle=orthogonalEdgeStyle;rounded=0;orthogonalLoop=1;jettySize=auto;html=1;entryX=0;entryY=0.5;entryDx=0;entryDy=0;exitX=0;exitY=0.5;exitDx=0;exitDy=0;" edge="1" parent="1" source="y6ZsIbJDHpcvQN1jzFES-8" target="y6ZsIbJDHpcvQN1jzFES-26">
          <mxGeometry relative="1" as="geometry" />
        </mxCell>
        <mxCell id="y6ZsIbJDHpcvQN1jzFES-8" value="Electrical Design" style="rounded=1;whiteSpace=wrap;html=1;" vertex="1" parent="1">
          <mxGeometry x="380" y="110" width="120" height="60" as="geometry" />
        </mxCell>
        <mxCell id="y6ZsIbJDHpcvQN1jzFES-36" value="" style="edgeStyle=orthogonalEdgeStyle;rounded=0;orthogonalLoop=1;jettySize=auto;html=1;exitX=0;exitY=0.5;exitDx=0;exitDy=0;" edge="1" parent="1" source="y6ZsIbJDHpcvQN1jzFES-10" target="y6ZsIbJDHpcvQN1jzFES-35">
          <mxGeometry relative="1" as="geometry">
            <Array as="points">
              <mxPoint x="840" y="140" />
              <mxPoint x="840" y="220" />
            </Array>
          </mxGeometry>
        </mxCell>
        <mxCell id="y6ZsIbJDHpcvQN1jzFES-38" value="" style="edgeStyle=orthogonalEdgeStyle;rounded=0;orthogonalLoop=1;jettySize=auto;html=1;" edge="1" parent="1" source="y6ZsIbJDHpcvQN1jzFES-10" target="y6ZsIbJDHpcvQN1jzFES-37">
          <mxGeometry relative="1" as="geometry">
            <Array as="points">
              <mxPoint x="840" y="140" />
              <mxPoint x="840" y="300" />
            </Array>
          </mxGeometry>
        </mxCell>
        <mxCell id="y6ZsIbJDHpcvQN1jzFES-40" value="" style="edgeStyle=orthogonalEdgeStyle;rounded=0;orthogonalLoop=1;jettySize=auto;html=1;entryX=0;entryY=0.5;entryDx=0;entryDy=0;" edge="1" parent="1" source="y6ZsIbJDHpcvQN1jzFES-10" target="y6ZsIbJDHpcvQN1jzFES-39">
          <mxGeometry relative="1" as="geometry">
            <Array as="points">
              <mxPoint x="840" y="140" />
              <mxPoint x="840" y="380" />
            </Array>
          </mxGeometry>
        </mxCell>
        <mxCell id="y6ZsIbJDHpcvQN1jzFES-10" value="Perception" style="rounded=1;whiteSpace=wrap;html=1;" vertex="1" parent="1">
          <mxGeometry x="860" y="110" width="120" height="60" as="geometry" />
        </mxCell>
        <mxCell id="y6ZsIbJDHpcvQN1jzFES-12" value="Calculations" style="rounded=1;whiteSpace=wrap;html=1;" vertex="1" parent="1">
          <mxGeometry x="220" y="190" width="120" height="60" as="geometry" />
        </mxCell>
        <mxCell id="y6ZsIbJDHpcvQN1jzFES-18" value="" style="edgeStyle=orthogonalEdgeStyle;rounded=0;orthogonalLoop=1;jettySize=auto;html=1;exitX=0;exitY=0.5;exitDx=0;exitDy=0;entryX=0;entryY=0.5;entryDx=0;entryDy=0;" edge="1" parent="1" source="y6ZsIbJDHpcvQN1jzFES-2" target="y6ZsIbJDHpcvQN1jzFES-17">
          <mxGeometry relative="1" as="geometry" />
        </mxCell>
        <mxCell id="y6ZsIbJDHpcvQN1jzFES-15" value="Designs Selection" style="rounded=1;whiteSpace=wrap;html=1;" vertex="1" parent="1">
          <mxGeometry x="220" y="270" width="120" height="60" as="geometry" />
        </mxCell>
        <mxCell id="y6ZsIbJDHpcvQN1jzFES-17" value="Drive Mechanisms" style="rounded=1;whiteSpace=wrap;html=1;" vertex="1" parent="1">
          <mxGeometry x="220" y="350" width="120" height="60" as="geometry" />
        </mxCell>
        <mxCell id="y6ZsIbJDHpcvQN1jzFES-19" value="" style="edgeStyle=orthogonalEdgeStyle;rounded=0;orthogonalLoop=1;jettySize=auto;html=1;exitX=0;exitY=0.5;exitDx=0;exitDy=0;entryX=0;entryY=0.5;entryDx=0;entryDy=0;" edge="1" parent="1" target="y6ZsIbJDHpcvQN1jzFES-20" source="y6ZsIbJDHpcvQN1jzFES-2">
          <mxGeometry relative="1" as="geometry">
            <mxPoint x="220" y="210" as="sourcePoint" />
            <Array as="points">
              <mxPoint x="200" y="140" />
              <mxPoint x="200" y="460" />
            </Array>
          </mxGeometry>
        </mxCell>
        <mxCell id="y6ZsIbJDHpcvQN1jzFES-22" value="" style="edgeStyle=orthogonalEdgeStyle;rounded=0;orthogonalLoop=1;jettySize=auto;html=1;" edge="1" parent="1" source="y6ZsIbJDHpcvQN1jzFES-20" target="y6ZsIbJDHpcvQN1jzFES-21">
          <mxGeometry relative="1" as="geometry" />
        </mxCell>
        <mxCell id="y6ZsIbJDHpcvQN1jzFES-20" value="Link Selections" style="rounded=1;whiteSpace=wrap;html=1;" vertex="1" parent="1">
          <mxGeometry x="220" y="430" width="120" height="60" as="geometry" />
        </mxCell>
        <mxCell id="y6ZsIbJDHpcvQN1jzFES-21" value="Joints" style="rounded=1;whiteSpace=wrap;html=1;" vertex="1" parent="1">
          <mxGeometry x="220" y="510" width="120" height="60" as="geometry" />
        </mxCell>
        <mxCell id="y6ZsIbJDHpcvQN1jzFES-23" value="Component Selection" style="rounded=1;whiteSpace=wrap;html=1;" vertex="1" parent="1">
          <mxGeometry x="380" y="190" width="120" height="60" as="geometry" />
        </mxCell>
        <mxCell id="y6ZsIbJDHpcvQN1jzFES-26" value="Circuit Diagram" style="rounded=1;whiteSpace=wrap;html=1;" vertex="1" parent="1">
          <mxGeometry x="380" y="270" width="120" height="60" as="geometry" />
        </mxCell>
        <mxCell id="y6ZsIbJDHpcvQN1jzFES-27" value="NO" style="rounded=1;whiteSpace=wrap;html=1;" vertex="1" parent="1">
          <mxGeometry x="540" y="190" width="120" height="60" as="geometry" />
        </mxCell>
        <mxCell id="y6ZsIbJDHpcvQN1jzFES-29" value="NO" style="rounded=1;whiteSpace=wrap;html=1;" vertex="1" parent="1">
          <mxGeometry x="540" y="270" width="120" height="60" as="geometry" />
        </mxCell>
        <mxCell id="y6ZsIbJDHpcvQN1jzFES-31" value="Simulation" style="rounded=1;whiteSpace=wrap;html=1;" vertex="1" parent="1">
          <mxGeometry x="700" y="190" width="120" height="60" as="geometry" />
        </mxCell>
        <mxCell id="y6ZsIbJDHpcvQN1jzFES-33" value="Integration with the Rover" style="rounded=1;whiteSpace=wrap;html=1;" vertex="1" parent="1">
          <mxGeometry x="700" y="270" width="120" height="60" as="geometry" />
        </mxCell>
        <mxCell id="y6ZsIbJDHpcvQN1jzFES-35" value="Sample Detection" style="rounded=1;whiteSpace=wrap;html=1;" vertex="1" parent="1">
          <mxGeometry x="860" y="190" width="120" height="60" as="geometry" />
        </mxCell>
        <mxCell id="y6ZsIbJDHpcvQN1jzFES-37" value="Grasp Estimation" style="rounded=1;whiteSpace=wrap;html=1;" vertex="1" parent="1">
          <mxGeometry x="860" y="270" width="120" height="60" as="geometry" />
        </mxCell>
        <mxCell id="y6ZsIbJDHpcvQN1jzFES-39" value="Marker Tracking" style="rounded=1;whiteSpace=wrap;html=1;" vertex="1" parent="1">
          <mxGeometry x="860" y="350" width="120" height="60" as="geometry" />
        </mxCell>
      </root>
    </mxGraphModel>
  </diagram>
</mxfile>
